<svg width="375" height="621" viewBox="0 0 375 621" fill="none" xmlns="http://www.w3.org/2000/svg">
<path d="M-398.9 1.07324C-159.318 114.123 58.6458 656.293 -18.7357 799.407C-69.4692 893.223 -315.606 817.801 -388.384 815.855C-487.623 813.169 -286.236 772.786 -219.239 676.936C-139.632 563.033 -105.067 211.795 80.4919 330.37C242.424 433.88 231.775 610.473 359.831 644.277C475.663 674.801 606.205 562.632 697.909 463.775" stroke="#008888" stroke-opacity="0.63" stroke-width="2" stroke-miterlimit="10"/>
<path d="M-401.92 11.1973C-174.188 125.566 34.6637 649.965 -35.469 788.277C-81.432 878.886 -314.226 806.388 -381.425 804.111C-474.575 800.919 -281.675 761.916 -216.257 670.295C-137.848 560.43 -101.708 225.204 77.4478 339.608C237.311 441.531 222.45 621.058 350.439 659.273C465.503 693.159 598.684 585.038 692.181 489.406" stroke="#008888" stroke-opacity="0.63" stroke-width="2" stroke-miterlimit="10"/>
<path d="M-404.929 21.2672C-189.046 136.954 10.7041 643.549 -52.1727 777.098C-93.3651 864.5 -312.835 794.921 -374.455 792.312C-461.512 788.539 -277.103 750.991 -213.258 663.583C-136.046 557.755 -98.3255 238.582 74.4157 348.793C232.204 449.146 213.001 632.045 341.077 674.22C455.23 711.885 591.169 607.408 686.484 514.988" stroke="#008888" stroke-opacity="0.63" stroke-width="2" stroke-miterlimit="10"/>
<path d="M-407.937 31.4142C-203.909 148.437 -13.2401 637.156 -68.8942 765.991C-105.3 850.133 -311.462 783.526 -367.502 780.585C-448.465 776.098 -272.51 740.073 -210.262 656.89C-134.118 555.119 -94.9398 251.962 71.4094 357.966C227.1 456.761 203.573 642.847 331.688 689.14C445.051 730.18 583.635 629.792 680.777 540.549" stroke="#008888" stroke-opacity="0.63" stroke-width="2" stroke-miterlimit="10"/>
<path d="M-410.952 41.5208C-218.668 159.893 -37.175 630.671 -85.6044 754.849C-117.219 835.713 -310.055 772.083 -360.489 768.723C-435.392 763.702 -267.903 729.178 -207.264 650.197C-132.248 552.484 -91.5583 265.359 68.3812 367.152C221.998 464.377 194.219 653.462 322.347 704.093C434.868 748.551 576.16 652.174 675.083 566.133" stroke="#008888" stroke-opacity="0.63" stroke-width="2" stroke-miterlimit="10"/>
<path d="M-413.967 51.6272C-233.503 171.346 -61.1 624.15 -102.333 743.701C-129.141 821.235 -308.648 760.641 -353.52 756.943C-422.27 751.264 -263.257 718.275 -204.267 643.503C-130.355 549.837 -88.1826 278.774 65.3647 376.361C216.866 472.023 184.822 664.159 312.965 719.054C424.686 766.922 568.701 674.561 669.383 591.734" stroke="#008888" stroke-opacity="0.63" stroke-width="2" stroke-miterlimit="10"/>
<path d="M-416.97 61.7566C-248.339 182.799 -84.9649 617.361 -119.049 732.576C-141.029 806.71 -307.301 749.142 -346.547 745.146C-409.162 738.746 -258.617 707.391 -201.276 636.828C-128.445 547.195 -84.8093 292.131 62.2953 385.554C211.727 479.629 175.382 674.805 303.565 734.009C414.43 785.214 561.081 696.976 663.648 617.325" stroke="#008888" stroke-opacity="0.63" stroke-width="2" stroke-miterlimit="10"/>
<path d="M-419.986 71.8625C-263.186 194.229 -108.865 610.561 -135.76 721.434C-152.902 792.132 -305.774 737.678 -339.561 733.371C-396.039 726.174 -253.924 696.521 -198.186 630.142C-126.381 544.484 -81.5225 305.843 59.3942 394.758C206.537 487.6 166.099 685.44 294.317 748.971C404.431 803.543 553.693 719.383 658.064 642.922" stroke="#008888" stroke-opacity="0.63" stroke-width="2" stroke-miterlimit="10"/>
<path d="M-423.001 81.9698C-278.021 205.683 -132.803 603.636 -152.488 710.287C-164.876 777.448 -304.258 726.192 -332.586 721.574C-382.817 713.403 -249.229 685.652 -195.269 623.464C-124.548 541.915 -78.3319 319.242 56.2908 403.941C201.331 495.243 156.681 696.017 284.865 763.911C394.17 821.796 546.102 741.77 652.278 668.498" stroke="#008888" stroke-opacity="0.63" stroke-width="2" stroke-miterlimit="10"/>
<path d="M-425.998 92.0808C-292.85 217.117 -156.77 596.549 -169.198 699.144C-176.888 762.695 -302.709 714.657 -325.617 709.793C-369.526 700.461 -244.571 674.772 -192.272 616.77C-122.55 539.298 -74.8756 332.641 53.3394 413.187C196.277 502.95 147.402 706.634 275.566 778.914C384.083 840.099 538.668 764.201 646.661 694.142" stroke="#008888" stroke-opacity="0.63" stroke-width="2" stroke-miterlimit="10"/>
<path d="M-429.014 102.187C-307.686 228.57 -180.846 589.315 -185.909 688.002C-188.989 747.858 -301.01 703.129 -318.736 697.988C-356.085 687.143 -239.883 663.92 -189.363 610.051C-120.617 536.643 -71.6104 346.042 50.1526 422.326C190.965 510.561 137.877 717.121 266.032 793.81C373.782 858.224 530.976 786.538 640.773 719.668" stroke="#008888" stroke-opacity="0.63" stroke-width="2" stroke-miterlimit="10"/>
<path d="M-432.035 112.311C-322.516 240.005 -205.05 581.929 -202.626 676.877C-201.198 732.932 -300.535 694.313 -311.658 686.221C-344.086 680.426 -235.002 653.126 -186.284 603.401C-118.479 534.069 -68.1248 359.47 47.2058 431.556C185.939 518.238 128.636 727.673 256.737 808.797C363.718 876.515 523.542 808.97 635.161 745.295" stroke="#008888" stroke-opacity="0.63" stroke-width="2" stroke-miterlimit="10"/>
<path d="M-435.033 122.422C-337.369 251.452 -229.478 574.399 -219.354 665.729C-213.56 717.942 -299.156 683.09 -304.689 674.441C-331.044 668.384 -230.108 642.353 -183.287 596.707C-116.375 531.484 -64.7616 372.862 44.1873 440.705C180.818 525.847 119.324 738.147 247.388 823.709C353.615 894.68 516.036 831.323 629.477 770.843" stroke="#008888" stroke-opacity="0.63" stroke-width="2" stroke-miterlimit="10"/>
<path d="M-438.047 132.53C-352.198 262.888 -254.174 566.81 -236.064 654.587C-226.101 702.918 -297.793 671.864 -297.661 662.66C-317.954 656.319 -225.179 631.593 -180.241 590.048C-114.166 528.931 -61.322 386.257 41.214 449.966C175.747 533.55 110.067 748.695 238.067 838.726C343.55 912.914 508.61 853.797 623.803 796.491" stroke="#008888" stroke-opacity="0.63" stroke-width="2" stroke-miterlimit="10"/>
<path d="M-441.066 142.634C-367.037 274.34 -279.199 559.218 -252.779 643.443C-238.838 687.892 -296.417 660.641 -290.749 650.863C-304.957 644.225 -220.317 620.85 -177.285 583.285C-111.964 526.26 -57.9766 399.567 38.1445 459.081C170.598 541.113 100.738 759.087 228.65 853.599C333.402 931.027 501.018 876.105 618.068 822.004" stroke="#008888" stroke-opacity="0.63" stroke-width="2" stroke-miterlimit="10"/>
<path d="M-444.064 152.746C-381.867 285.775 -304.557 551.795 -269.507 632.296C-251.784 672.939 -295.056 649.415 -283.763 639.089C-291.909 632.166 -215.351 610.157 -174.31 576.662C-109.736 523.961 -54.6013 412.982 35.0945 468.338C165.479 548.782 91.4497 769.606 219.27 868.618C323.323 949.238 493.485 898.547 612.352 847.658" stroke="#008888" stroke-opacity="0.63" stroke-width="2" stroke-miterlimit="10"/>
<path d="M-447.079 162.853C-396.702 297.228 -330.404 544.609 -286.218 621.153C-264.887 658.13 -293.676 638.193 -276.789 627.291C-278.855 620.09 -210.348 599.532 -171.312 569.969C-107.405 521.577 -51.2099 426.344 32.0938 477.493C160.391 556.345 82.227 779.973 209.904 883.525C313.259 967.338 485.98 920.901 606.651 873.201" stroke="#008888" stroke-opacity="0.63" stroke-width="2" stroke-miterlimit="10"/>
<path d="M-450.1 172.976C-411.549 308.658 -356.48 537.87 -302.934 610.028C-278.082 643.504 -292.314 626.966 -269.82 615.511C-265.807 608.03 -205.285 588.963 -168.386 563.254C-105.048 519.296 -47.8712 439.69 28.9793 486.711C155.212 563.957 72.9151 790.447 200.459 898.505C303.121 985.493 478.395 943.326 600.871 898.817" stroke="#008888" stroke-opacity="0.63" stroke-width="2" stroke-miterlimit="10"/>
<path d="M-453.098 183.088C-426.385 320.111 -382.732 531.596 -319.645 598.886C-291.322 629.094 -289.204 619.18 -262.852 603.732C-251.869 597.286 -200.165 578.392 -165.306 556.605C-102.482 517.212 -44.3822 453.043 26.0325 495.94C150.207 571.564 63.769 800.875 191.147 913.487C293.151 1003.66 470.949 965.736 595.241 924.439" stroke="#008888" stroke-opacity="0.63" stroke-width="2" stroke-miterlimit="10"/>
<path d="M-456.128 193.247C-441.229 331.598 -408.998 525.889 -336.3 587.817C-304.423 614.991 -288.781 606.356 -255.787 592.017C-239.234 584.817 -194.992 568.161 -162.236 549.99C-99.8196 515.384 -40.9127 466.465 23.0767 505.204C145.22 579.175 54.6437 811.365 181.861 928.513C283.212 1021.85 463.5 988.22 589.602 950.095" stroke="#008888" stroke-opacity="0.63" stroke-width="2" stroke-miterlimit="10"/>
<path d="M-459.128 203.302C-456.049 343 -435.093 520.503 -353.084 576.597C-317.566 600.897 -287.944 594.001 -248.891 580.16C-226.522 572.221 -189.934 557.802 -159.317 543.237C-97.2349 513.689 -37.4996 479.625 19.9859 514.277C140.231 586.406 45.574 821.473 172.423 943.343C273.256 1039.72 455.927 1010.48 583.845 975.567" stroke="#008888" stroke-opacity="0.63" stroke-width="2" stroke-miterlimit="10"/>
<path d="M-462.126 213.413C-470.879 354.434 -460.96 515.506 -369.795 565.454C-252.073 630.055 -95.1106 456.604 16.9589 523.52C135.106 594.092 36.243 832.074 163.048 958.343C263.111 1058.02 448.407 1032.94 578.135 1001.2" stroke="#008888" stroke-opacity="0.63" stroke-width="2" stroke-miterlimit="10"/>
</svg>
