<svg width="375" height="812" viewBox="0 0 375 812" fill="none" xmlns="http://www.w3.org/2000/svg">
<path d="M487.607 1170.82C458.21 1097.91 441.805 1018.44 439.179 936.252C433.768 741.5 513.526 645.669 472.183 593.141C408.292 511.982 199.975 718.307 6.65128 639.04C-135.154 580.921 -199.287 397.635 -214.117 355.189C-272.04 189.698 -225.4 83.6294 -305.222 24.2744C-363.564 -19.218 -413.635 18.7963 -520.576 -24.8942C-595.023 -55.3124 -645.724 -104.335 -677.237 -141.493" stroke="#008888" stroke-opacity="0.5" stroke-miterlimit="10"/>
<path d="M494.973 1159.3C465.579 1086.37 449.172 1006.9 446.538 924.695C441.141 729.917 520.885 634.112 479.564 581.597C415.65 500.425 207.333 706.75 14.0319 627.496C-127.781 569.339 -191.915 386.052 -206.759 343.632C-264.681 178.141 -218.019 72.0851 -297.863 12.7174C-356.206 -30.775 -406.255 7.25194 -513.218 -36.4513C-587.687 -66.8822 -638.366 -115.892 -669.879 -153.05" stroke="#008888" stroke-opacity="0.5" stroke-miterlimit="10"/>
<path d="M502.339 1147.78C472.935 1074.86 456.527 995.381 453.904 913.176C448.507 718.398 528.251 622.593 486.907 570.065C423.083 488.944 214.677 695.218 21.3756 615.964C-120.415 557.82 -184.549 374.533 -199.393 332.113C-257.301 166.597 -210.675 60.5533 -290.497 1.19832C-348.84 -42.2941 -398.925 -4.25435 -505.866 -47.9448C-580.335 -78.3758 -631.014 -127.385 -662.527 -164.543" stroke="#008888" stroke-opacity="0.5" stroke-miterlimit="10"/>
<path d="M509.663 1136.24C480.28 1063.3 463.885 983.824 461.264 901.619C455.867 706.841 535.61 611.036 494.289 558.521C430.376 477.349 222.059 683.674 28.7576 604.421C-113.056 546.263 -177.189 362.976 -192.033 320.556C-249.941 155.04 -203.293 49.0094 -283.137 -10.3583C-341.48 -53.8507 -391.543 -15.7982 -498.506 -59.5014C-572.975 -89.9324 -623.654 -138.942 -655.167 -176.1" stroke="#008888" stroke-opacity="0.5" stroke-miterlimit="10"/>
<path d="M517.052 1124.74C487.657 1051.8 471.25 972.329 468.616 890.126C463.197 695.336 542.977 599.518 501.62 547.016C437.728 465.856 229.389 672.168 36.0878 592.915C-105.725 534.758 -169.836 351.484 -184.703 309.051C-242.589 143.547 -195.963 37.5039 -275.785 -21.8511C-334.128 -65.3435 -384.213 -27.3037 -491.154 -70.9942C-565.623 -101.425 -616.288 -150.46 -647.815 -187.593" stroke="#008888" stroke-opacity="0.5" stroke-miterlimit="10"/>
<path d="M524.395 1113.2C495.01 1040.27 478.602 960.795 475.959 878.594C470.562 683.817 550.32 587.986 508.985 535.496C445.138 454.362 236.755 660.649 43.3748 581.485C-98.4161 523.34 -162.549 340.054 -177.394 297.634C-235.302 132.118 -188.654 26.087 -268.498 -33.2807C-326.841 -76.7731 -376.903 -38.7206 -483.866 -82.4238C-558.336 -112.855 -609 -161.89 -640.55 -199.035" stroke="#008888" stroke-opacity="0.5" stroke-miterlimit="10"/>
<path d="M531.733 1101.63C502.352 1028.69 485.969 949.21 483.37 867C477.951 672.21 557.731 576.392 516.374 523.889C452.497 442.705 244.158 649.017 50.8562 569.763C-90.9711 511.631 -155.082 328.357 -169.948 285.924C-227.835 120.421 -181.209 14.3776 -261.031 -44.9774C-319.374 -88.4698 -369.459 -50.43 -476.399 -94.1206C-550.855 -124.577 -601.533 -173.586 -633.06 -210.719" stroke="#008888" stroke-opacity="0.5" stroke-miterlimit="10"/>
<path d="M539.063 1090.23C509.659 1017.31 493.251 937.83 490.627 855.625C485.216 660.873 564.974 565.042 523.653 512.527C459.739 431.355 251.423 637.68 58.099 558.413C-83.7061 500.294 -147.839 317.008 -162.669 274.562C-220.592 109.071 -173.944 3.0405 -253.774 -56.3527C-312.117 -99.8451 -362.201 -61.8053 -469.128 -105.521C-543.575 -135.94 -594.254 -184.949 -625.789 -222.12" stroke="#008888" stroke-opacity="0.5" stroke-miterlimit="10"/>
<path d="M546.485 1078.61C517.083 1005.68 500.667 926.202 498.028 843.993C492.617 649.241 572.397 553.423 531.054 500.895C467.206 419.761 258.823 626.048 65.4795 546.871C-76.3478 488.739 -140.459 305.466 -155.311 263.007C-213.211 97.5293 -166.571 -8.53959 -246.393 -67.8946C-304.736 -111.387 -354.807 -73.3727 -461.748 -117.063C-536.217 -147.494 -586.896 -196.503 -618.409 -233.662" stroke="#008888" stroke-opacity="0.5" stroke-miterlimit="10"/>
<path d="M553.786 1067.06C524.42 994.096 508.046 914.595 505.452 832.372C500.055 637.594 579.798 541.789 538.455 489.261C474.564 408.102 266.247 614.427 72.9233 535.161C-68.8819 477.041 -133.015 293.755 -147.845 251.309C-205.768 85.8182 -159.106 -20.238 -238.95 -79.6058C-297.292 -123.098 -347.363 -85.0839 -454.304 -128.774C-528.751 -159.193 -579.43 -208.202 -610.965 -245.373" stroke="#008888" stroke-opacity="0.5" stroke-miterlimit="10"/>
<path d="M561.146 1055.6C531.761 982.666 515.353 903.193 512.71 820.992C507.314 626.215 587.057 530.409 545.736 477.894C481.845 396.735 273.506 603.047 80.2044 523.794C-61.6088 465.636 -125.72 282.362 -140.586 239.929C-198.486 74.4515 -151.847 -31.6174 -231.691 -90.9851C-290.011 -134.465 -340.082 -96.4506 -447.045 -140.154C-521.514 -170.585 -572.193 -219.594 -603.706 -256.752" stroke="#008888" stroke-opacity="0.5" stroke-miterlimit="10"/>
<path d="M568.542 1044.03C539.148 971.102 522.741 891.628 520.107 809.425C514.71 614.647 594.454 518.842 553.111 466.314C489.219 385.154 280.902 591.48 87.5788 512.213C-54.2123 454.069 -118.345 270.782 -133.19 228.362C-191.098 62.8456 -144.45 -43.1851 -224.294 -102.553C-282.637 -146.045 -332.722 -108.005 -439.663 -151.696C-514.11 -182.114 -564.789 -231.124 -596.324 -268.294" stroke="#008888" stroke-opacity="0.5" stroke-miterlimit="10"/>
<path d="M568.542 1044.03C539.148 971.102 522.741 891.628 520.107 809.425C514.71 614.647 594.454 518.842 553.111 466.314C489.219 385.154 280.902 591.48 87.5788 512.213C-54.2123 454.069 -118.345 270.782 -133.19 228.362C-191.098 62.8456 -144.45 -43.1851 -224.294 -102.553C-282.637 -146.045 -332.722 -108.005 -439.663 -151.696C-514.11 -182.114 -564.789 -231.124 -596.324 -268.294" stroke="#008888" stroke-opacity="0.5" stroke-miterlimit="10"/>
<path d="M575.842 1032.48C546.465 959.537 530.058 880.066 527.406 797.867C522.009 603.09 601.753 507.284 560.432 454.769C496.571 373.661 288.145 580.024 94.9444 500.694C-46.8688 442.537 -110.98 259.263 -125.846 216.83C-183.732 51.3263 -137.107 -54.7171 -216.951 -114.085C-275.271 -157.565 -325.356 -119.525 -432.319 -163.228C-506.789 -193.659 -557.453 -242.694 -588.98 -279.827" stroke="#008888" stroke-opacity="0.5" stroke-miterlimit="10"/>
<path d="M583.253 1020.98C553.859 948.052 537.451 868.577 534.817 786.374C529.42 591.596 609.178 495.765 567.821 443.263C503.93 362.104 295.613 568.429 102.289 489.163C-39.5018 431.018 -103.635 247.731 -118.457 205.324C-176.365 39.8077 -129.717 -66.223 -209.561 -125.591C-267.904 -169.083 -317.989 -131.043 -424.93 -174.734C-499.377 -205.152 -550.042 -254.187 -581.591 -291.332" stroke="#008888" stroke-opacity="0.5" stroke-miterlimit="10"/>
<path d="M590.598 1009.45C561.213 936.517 544.806 857.044 542.163 774.843C536.766 580.065 616.523 484.234 575.188 431.745C511.319 350.598 302.958 556.898 109.671 477.619C-32.1426 419.461 -96.2536 236.188 -111.12 193.754C-169.006 28.2512 -122.38 -77.7922 -202.224 -137.16C-260.545 -180.64 -310.63 -142.6 -417.593 -186.303C-492.048 -216.76 -542.727 -265.769 -574.254 -302.902" stroke="#008888" stroke-opacity="0.5" stroke-miterlimit="10"/>
<path d="M597.911 997.869C568.499 924.946 552.09 845.468 549.475 763.261C544.064 568.508 623.822 472.678 582.465 420.175C518.654 339.029 310.229 545.392 117.014 466.087C-24.7915 407.968 -88.9247 224.682 -103.769 182.261C-161.677 16.7452 -115.029 -89.2855 -194.873 -148.653C-253.216 -192.146 -303.301 -154.106 -410.242 -197.796C-484.675 -228.24 -535.354 -277.25 -566.903 -314.395" stroke="#008888" stroke-opacity="0.5" stroke-miterlimit="10"/>
<path d="M605.336 986.351C575.932 913.425 559.524 833.948 556.901 751.743C551.49 556.99 631.248 461.16 589.927 408.645C526.035 327.485 317.696 533.798 124.395 454.544C-17.4324 396.412 -81.5434 213.138 -96.3957 170.68C-154.296 5.20184 -107.656 -100.867 -187.5 -160.235C-245.843 -203.727 -295.892 -165.7 -402.854 -209.403C-477.324 -239.834 -528.003 -288.844 -559.515 -326.002" stroke="#008888" stroke-opacity="0.5" stroke-miterlimit="10"/>
<path d="M612.69 974.858C583.286 901.931 566.878 822.455 564.254 740.249C558.843 545.497 638.601 449.666 597.258 397.139C533.389 315.992 325.05 522.304 131.754 442.987C-10.0508 384.868 -74.1841 201.581 -89.0141 159.135C-146.937 -6.35535 -100.274 -112.412 -180.119 -171.779C-238.461 -215.272 -288.532 -177.257 -395.473 -220.948C-469.92 -251.366 -520.599 -300.376 -552.134 -337.547" stroke="#008888" stroke-opacity="0.5" stroke-miterlimit="10"/>
<path d="M619.967 963.288C590.573 890.357 574.165 810.882 571.532 728.679C566.135 533.902 645.878 438.096 604.558 385.581C540.761 304.409 332.313 510.76 139.092 431.519C-2.72097 373.361 -66.8543 190.075 -81.6984 147.654C-139.599 -17.8234 -92.9587 -123.892 -172.803 -183.26C-231.146 -226.753 -281.194 -188.726 -388.157 -232.429C-462.627 -262.86 -513.306 -311.869 -544.818 -349.027" stroke="#008888" stroke-opacity="0.5" stroke-miterlimit="10"/>
<path d="M627.441 951.732C598.037 878.805 581.629 799.329 579.005 717.123C573.608 522.345 653.352 426.54 612.009 374.012C548.118 292.853 339.801 499.178 146.477 419.912C4.64404 361.844 -59.4892 178.557 -74.3333 136.137C-132.242 -29.3792 -85.5936 -135.41 -165.438 -194.778C-223.78 -238.27 -273.865 -200.23 -380.806 -243.921C-455.253 -274.339 -505.932 -323.348 -537.467 -360.519" stroke="#008888" stroke-opacity="0.5" stroke-miterlimit="10"/>
<path d="M634.746 940.276C605.352 867.345 588.944 787.87 586.31 705.667C580.913 510.889 660.657 415.084 619.336 362.569C555.445 281.409 347.106 487.722 153.861 408.366C12.0473 350.209 -52.086 166.922 -66.9301 124.502C-124.816 -41.0016 -78.1904 -147.045 -158.035 -206.413C-216.377 -249.905 -266.44 -211.853 -373.403 -255.556C-447.872 -285.987 -498.551 -334.996 -530.064 -372.154" stroke="#008888" stroke-opacity="0.5" stroke-miterlimit="10"/>
<path d="M642.023 928.706C612.629 855.775 596.221 776.301 593.587 694.098C588.19 499.32 667.948 403.489 626.591 350.987C562.845 269.776 354.397 476.127 161.148 396.937C19.3569 338.793 -44.7763 155.506 -59.6205 113.085C-117.529 -52.4305 -70.8809 -158.461 -150.725 -217.829C-209.068 -261.321 -259.153 -223.282 -366.093 -266.972C-440.541 -297.39 -491.228 -346.438 -522.754 -383.571" stroke="#008888" stroke-opacity="0.5" stroke-miterlimit="10"/>
<path d="M649.524 917.1C620.139 844.165 603.732 764.692 601.089 682.491C595.692 487.713 675.449 391.883 634.115 339.393C570.223 258.234 361.884 464.546 168.583 385.293C26.6993 327.263 -37.434 143.976 -52.2781 101.556C-110.187 -63.96 -63.5384 -169.991 -143.382 -229.358C-201.725 -272.851 -251.788 -234.798 -358.751 -278.501C-433.22 -308.932 -483.885 -357.967 -515.412 -395.1" stroke="#008888" stroke-opacity="0.5" stroke-miterlimit="10"/>
<path d="M656.836 905.682C627.43 832.764 611.017 753.296 608.387 671.099C602.99 476.321 682.748 380.49 641.39 327.988C577.513 246.803 369.196 453.128 175.859 373.887C34.0677 315.743 -30.0656 132.456 -44.9097 90.0357C-102.818 -75.4802 -56.1922 -181.524 -136.014 -240.879C-194.357 -284.371 -244.442 -246.331 -351.383 -290.022C-425.816 -320.466 -476.517 -369.488 -508.044 -406.62" stroke="#008888" stroke-opacity="0.5" stroke-miterlimit="10"/>
<path d="M664.09 894.104C634.686 821.178 618.278 741.701 615.654 659.496C610.244 464.743 690.001 368.913 648.68 316.398C584.926 235.149 376.478 441.5 183.237 362.348C41.41 304.216 -22.7233 120.929 -37.5533 78.4834C-95.4758 -87.007 -48.8278 -193.038 -128.658 -252.431C-187.001 -295.923 -237.063 -257.871 -344.012 -301.6C-418.482 -332.031 -469.16 -381.04 -500.673 -418.198" stroke="#008888" stroke-opacity="0.5" stroke-miterlimit="10"/>
<path d="M671.545 882.636C642.141 809.709 625.733 730.233 623.109 648.027C617.698 453.275 697.456 357.444 656.113 304.916C592.222 223.757 383.883 430.069 190.581 350.816C48.7761 292.697 -15.3994 109.487 -30.2094 66.9515C-88.1097 -98.5262 -41.4697 -204.595 -121.292 -263.95C-179.634 -307.443 -229.705 -269.428 -336.646 -313.119C-411.115 -343.55 -461.794 -392.559 -493.307 -429.717" stroke="#008888" stroke-opacity="0.5" stroke-miterlimit="10"/>
<path d="M678.889 871.105C649.495 798.174 633.088 718.699 630.454 636.496C625.057 441.718 704.801 345.913 663.48 293.398C599.566 212.226 391.249 418.551 197.948 339.297C56.1206 281.166 -8.01266 97.8789 -22.8427 55.433C-80.7652 -110.057 -34.1031 -216.114 -113.947 -275.481C-172.29 -318.974 -222.339 -280.947 -329.302 -324.65C-403.771 -355.081 -454.45 -404.09 -485.963 -441.249" stroke="#008888" stroke-opacity="0.5" stroke-miterlimit="10"/>
</svg>
