<svg width="375" height="812" viewBox="0 0 375 812" fill="none" xmlns="http://www.w3.org/2000/svg">
<path d="M403.607 1131.82C374.21 1058.91 357.805 979.443 355.179 897.252C349.768 702.5 429.526 606.669 388.183 554.141C324.292 472.982 115.975 679.307 -77.3487 600.04C-219.154 541.921 -283.287 358.635 -298.117 316.189C-356.04 150.698 -309.4 44.6294 -389.222 -14.7256C-447.564 -58.218 -497.635 -20.2037 -604.576 -63.8942C-679.023 -94.3124 -729.724 -143.335 -761.237 -180.493" stroke="#008888" stroke-opacity="0.5" stroke-miterlimit="10"/>
<path d="M410.973 1120.3C381.579 1047.37 365.172 967.898 362.538 885.695C357.141 690.917 436.885 595.112 395.564 542.597C331.65 461.425 123.333 667.75 -69.9681 588.496C-211.781 530.339 -275.915 347.052 -290.759 304.632C-348.681 139.141 -302.019 33.0851 -381.863 -26.2826C-440.206 -69.775 -490.255 -31.7481 -597.218 -75.4513C-671.687 -105.882 -722.366 -154.892 -753.879 -192.05" stroke="#008888" stroke-opacity="0.5" stroke-miterlimit="10"/>
<path d="M418.339 1108.78C388.935 1035.86 372.527 956.381 369.904 874.176C364.507 679.398 444.251 583.593 402.907 531.065C339.083 449.944 130.677 656.218 -62.6244 576.964C-204.415 518.82 -268.549 335.533 -283.393 293.113C-341.301 127.597 -294.675 21.5533 -374.497 -37.8017C-432.84 -81.2941 -482.925 -43.2544 -589.866 -86.9448C-664.335 -117.376 -715.014 -166.385 -746.527 -203.543" stroke="#008888" stroke-opacity="0.5" stroke-miterlimit="10"/>
<path d="M425.663 1097.24C396.28 1024.3 379.885 944.824 377.264 862.619C371.867 667.841 451.61 572.036 410.289 519.521C346.376 438.349 138.059 644.674 -55.2424 565.421C-197.056 507.263 -261.189 323.976 -276.033 281.556C-333.941 116.04 -287.293 10.0094 -367.137 -49.3583C-425.48 -92.8507 -475.543 -54.7982 -582.506 -98.5014C-656.975 -128.932 -707.654 -177.942 -739.167 -215.1" stroke="#008888" stroke-opacity="0.5" stroke-miterlimit="10"/>
<path d="M433.052 1085.74C403.657 1012.8 387.25 933.329 384.616 851.126C379.197 656.336 458.977 560.518 417.62 508.016C353.728 426.856 145.389 633.168 -47.9122 553.915C-189.725 495.758 -253.836 312.484 -268.703 270.051C-326.589 104.547 -279.963 -1.49608 -359.785 -60.8511C-418.128 -104.343 -468.213 -66.3037 -575.154 -109.994C-649.623 -140.425 -700.288 -189.46 -731.815 -226.593" stroke="#008888" stroke-opacity="0.5" stroke-miterlimit="10"/>
<path d="M440.395 1074.2C411.01 1001.27 394.602 921.795 391.959 839.594C386.562 644.817 466.32 548.986 424.985 496.496C361.138 415.362 152.755 621.649 -40.6252 542.485C-182.416 484.34 -246.549 301.054 -261.394 258.634C-319.302 93.1176 -272.654 -12.913 -352.498 -72.2807C-410.841 -115.773 -460.903 -77.7206 -567.866 -121.424C-642.336 -151.855 -693 -200.89 -724.55 -238.035" stroke="#008888" stroke-opacity="0.5" stroke-miterlimit="10"/>
<path d="M447.733 1062.63C418.352 989.695 401.969 910.21 399.37 828C393.951 633.21 473.731 537.392 432.374 484.889C368.497 403.705 160.158 610.017 -33.1438 530.763C-174.971 472.631 -239.082 289.357 -253.948 246.924C-311.835 81.4211 -265.209 -24.6224 -345.031 -83.9774C-403.374 -127.47 -453.459 -89.43 -560.399 -133.121C-634.855 -163.577 -685.533 -212.586 -717.06 -249.719" stroke="#008888" stroke-opacity="0.5" stroke-miterlimit="10"/>
<path d="M455.063 1051.23C425.659 978.307 409.251 898.83 406.627 816.625C401.216 621.873 480.974 526.042 439.653 473.527C375.739 392.355 167.423 598.68 -25.901 519.413C-167.706 461.294 -231.839 278.008 -246.669 235.562C-304.592 70.0712 -257.944 -35.9595 -337.774 -95.3527C-396.117 -138.845 -446.201 -100.805 -553.128 -144.521C-627.575 -174.94 -678.254 -223.949 -709.789 -261.12" stroke="#008888" stroke-opacity="0.5" stroke-miterlimit="10"/>
<path d="M462.485 1039.61C433.083 966.681 416.667 887.202 414.028 804.993C408.617 610.241 488.397 514.423 447.054 461.895C383.206 380.761 174.823 587.048 -18.5205 507.871C-160.348 449.739 -224.459 266.466 -239.311 224.007C-297.211 58.5293 -250.571 -47.5396 -330.393 -106.895C-388.736 -150.387 -438.807 -112.373 -545.748 -156.063C-620.217 -186.494 -670.896 -235.503 -702.409 -272.662" stroke="#008888" stroke-opacity="0.5" stroke-miterlimit="10"/>
<path d="M469.786 1028.06C440.42 955.096 424.046 875.595 421.452 793.372C416.055 598.594 495.798 502.789 454.455 450.261C390.564 369.102 182.247 575.427 -11.0767 496.161C-152.882 438.041 -217.015 254.755 -231.845 212.309C-289.768 46.8182 -243.106 -59.238 -322.95 -118.606C-381.293 -162.098 -431.363 -124.084 -538.304 -167.774C-612.751 -198.193 -663.43 -247.202 -694.965 -284.373" stroke="#008888" stroke-opacity="0.5" stroke-miterlimit="10"/>
<path d="M477.146 1016.6C447.761 943.666 431.353 864.193 428.71 781.992C423.314 587.215 503.057 491.409 461.736 438.894C397.845 357.735 189.506 564.047 -3.79557 484.794C-145.609 426.636 -209.72 243.362 -224.586 200.929C-282.486 35.4515 -235.847 -70.6174 -315.691 -129.985C-374.011 -173.465 -424.082 -135.451 -531.045 -179.154C-605.514 -209.585 -656.193 -258.594 -687.706 -295.752" stroke="#008888" stroke-opacity="0.5" stroke-miterlimit="10"/>
<path d="M484.542 1005.03C455.148 932.102 438.741 852.628 436.107 770.425C430.71 575.647 510.454 479.842 469.111 427.314C405.219 346.154 196.902 552.48 3.57876 473.213C-138.212 415.069 -202.345 231.782 -217.19 189.362C-275.098 23.8456 -228.45 -82.1851 -308.294 -141.553C-366.637 -185.045 -416.722 -147.005 -523.663 -190.696C-598.11 -221.114 -648.789 -270.124 -680.324 -307.294" stroke="#008888" stroke-opacity="0.5" stroke-miterlimit="10"/>
<path d="M491.842 993.476C462.465 920.537 446.058 841.066 443.406 758.867C438.009 564.09 517.753 468.284 476.432 415.769C412.571 334.661 204.145 541.024 10.9444 461.694C-130.869 403.537 -194.98 220.263 -209.846 177.83C-267.732 12.3263 -221.107 -93.7171 -300.951 -153.085C-359.271 -196.565 -409.356 -158.525 -516.319 -202.228C-590.789 -232.659 -641.453 -281.694 -672.98 -318.827" stroke="#008888" stroke-opacity="0.5" stroke-miterlimit="10"/>
<path d="M499.253 981.983C469.859 909.052 453.451 829.577 450.817 747.374C445.42 552.596 525.178 456.765 483.821 404.263C419.93 323.104 211.613 529.429 18.2892 450.163C-123.502 392.018 -187.635 208.731 -202.457 166.324C-260.365 0.807701 -213.717 -105.223 -293.561 -164.591C-351.904 -208.083 -401.989 -170.043 -508.93 -213.734C-583.377 -244.152 -634.042 -293.187 -665.591 -330.332" stroke="#008888" stroke-opacity="0.5" stroke-miterlimit="10"/>
<path d="M506.598 970.452C477.213 897.517 460.806 818.044 458.163 735.843C452.766 541.065 532.523 445.234 491.188 392.745C427.319 311.598 218.958 517.898 25.6707 438.619C-116.143 380.461 -180.254 197.188 -195.12 154.754C-253.006 -10.7488 -206.38 -116.792 -286.224 -176.16C-344.545 -219.64 -394.63 -181.6 -501.593 -225.303C-576.048 -255.76 -626.727 -304.769 -658.254 -341.902" stroke="#008888" stroke-opacity="0.5" stroke-miterlimit="10"/>
<path d="M513.911 958.869C484.499 885.946 468.09 806.468 465.475 724.261C460.064 529.508 539.822 433.678 498.465 381.175C434.654 300.029 226.229 506.392 33.0137 427.087C-108.791 368.968 -172.925 185.682 -187.769 143.261C-245.677 -22.2548 -199.029 -128.285 -278.873 -187.653C-337.216 -231.146 -387.301 -193.106 -494.242 -236.796C-568.675 -267.24 -619.354 -316.25 -650.903 -353.395" stroke="#008888" stroke-opacity="0.5" stroke-miterlimit="10"/>
<path d="M521.336 947.351C491.932 874.425 475.524 794.948 472.901 712.743C467.49 517.99 547.248 422.16 505.927 369.645C442.035 288.485 233.696 494.798 40.395 415.544C-101.432 357.412 -165.543 174.138 -180.396 131.68C-238.296 -33.7982 -191.656 -139.867 -271.5 -199.235C-329.843 -242.727 -379.892 -204.7 -486.854 -248.403C-561.324 -278.834 -612.003 -327.844 -643.515 -365.002" stroke="#008888" stroke-opacity="0.5" stroke-miterlimit="10"/>
<path d="M528.69 935.858C499.286 862.931 482.878 783.455 480.254 701.249C474.843 506.497 554.601 410.666 513.258 358.139C449.389 276.992 241.05 483.304 47.7543 403.987C-94.0508 345.868 -158.184 162.581 -173.014 120.135C-230.937 -45.3554 -184.274 -151.412 -264.119 -210.779C-322.461 -254.272 -372.532 -216.257 -479.473 -259.948C-553.92 -290.366 -604.599 -339.376 -636.134 -376.547" stroke="#008888" stroke-opacity="0.5" stroke-miterlimit="10"/>
<path d="M535.967 924.288C506.573 851.357 490.165 771.882 487.532 689.679C482.135 494.902 561.878 399.096 520.558 346.581C456.761 265.409 248.313 471.76 55.0923 392.519C-86.721 334.361 -150.854 151.075 -165.698 108.654C-223.599 -56.8234 -176.959 -162.892 -256.803 -222.26C-315.146 -265.753 -365.194 -227.726 -472.157 -271.429C-546.627 -301.86 -597.306 -350.869 -628.818 -388.027" stroke="#008888" stroke-opacity="0.5" stroke-miterlimit="10"/>
<path d="M543.441 912.732C514.037 839.805 497.629 760.329 495.005 678.123C489.608 483.345 569.352 387.54 528.009 335.012C464.118 253.853 255.801 460.178 62.4773 380.912C-79.356 322.844 -143.489 139.557 -158.333 97.1367C-216.242 -68.3792 -169.594 -174.41 -249.438 -233.778C-307.78 -277.27 -357.865 -239.23 -464.806 -282.921C-539.253 -313.339 -589.932 -362.348 -621.467 -399.519" stroke="#008888" stroke-opacity="0.5" stroke-miterlimit="10"/>
<path d="M550.746 901.276C521.352 828.345 504.944 748.87 502.31 666.667C496.913 471.889 576.657 376.084 535.336 323.569C471.445 242.409 263.106 448.722 69.8606 369.366C-71.9527 311.209 -136.086 127.922 -150.93 85.5017C-208.816 -80.0016 -162.19 -186.045 -242.035 -245.413C-300.377 -288.905 -350.44 -250.853 -457.403 -294.556C-531.872 -324.987 -582.551 -373.996 -614.064 -411.154" stroke="#008888" stroke-opacity="0.5" stroke-miterlimit="10"/>
<path d="M558.023 889.706C528.629 816.775 512.221 737.301 509.587 655.098C504.19 460.32 583.948 364.489 542.591 311.987C478.845 230.776 270.397 437.127 77.148 357.937C-64.6431 299.793 -128.776 116.506 -143.62 74.0854C-201.529 -91.4305 -154.881 -197.461 -234.725 -256.829C-293.068 -300.321 -343.153 -262.282 -450.093 -305.972C-524.541 -336.39 -575.228 -385.438 -606.754 -422.571" stroke="#008888" stroke-opacity="0.5" stroke-miterlimit="10"/>
<path d="M565.524 878.1C536.139 805.165 519.732 725.692 517.089 643.491C511.692 448.713 591.449 352.883 550.115 300.393C486.223 219.234 277.884 425.546 84.5829 346.293C-57.3007 288.263 -121.434 104.976 -136.278 62.5559C-194.187 -102.96 -147.538 -208.991 -227.382 -268.358C-285.725 -311.851 -335.788 -273.798 -442.751 -317.501C-517.22 -347.932 -567.885 -396.967 -599.412 -434.1" stroke="#008888" stroke-opacity="0.5" stroke-miterlimit="10"/>
<path d="M572.836 866.682C543.43 793.764 527.017 714.296 524.387 632.099C518.99 437.321 598.748 341.49 557.39 288.988C493.513 207.803 285.196 414.128 91.8587 334.887C-49.9323 276.743 -114.066 93.4561 -128.91 51.0357C-186.818 -114.48 -140.192 -220.524 -220.014 -279.879C-278.357 -323.371 -328.442 -285.331 -435.383 -329.022C-509.816 -359.466 -560.517 -408.488 -592.044 -445.62" stroke="#008888" stroke-opacity="0.5" stroke-miterlimit="10"/>
<path d="M580.09 855.104C550.686 782.178 534.278 702.701 531.654 620.496C526.244 425.743 606.001 329.913 564.68 277.398C500.926 196.149 292.478 402.5 99.2373 323.348C-42.59 265.216 -106.723 81.9293 -121.553 39.4834C-179.476 -126.007 -132.828 -232.038 -212.658 -291.431C-271.001 -334.923 -321.063 -296.871 -428.012 -340.6C-502.482 -371.031 -553.16 -420.04 -584.673 -457.198" stroke="#008888" stroke-opacity="0.5" stroke-miterlimit="10"/>
<path d="M587.545 843.636C558.141 770.709 541.733 691.233 539.109 609.027C533.698 414.275 613.456 318.444 572.113 265.916C508.222 184.757 299.883 391.069 106.581 311.816C-35.2239 253.697 -99.3994 70.4866 -114.209 27.9515C-172.11 -137.526 -125.47 -243.595 -205.292 -302.95C-263.634 -346.443 -313.705 -308.428 -420.646 -352.119C-495.115 -382.55 -545.794 -431.559 -577.307 -468.717" stroke="#008888" stroke-opacity="0.5" stroke-miterlimit="10"/>
<path d="M594.889 832.105C565.495 759.174 549.088 679.699 546.454 597.496C541.057 402.718 620.801 306.913 579.48 254.398C515.566 173.226 307.249 379.551 113.948 300.297C-27.8794 242.166 -92.0127 58.8789 -106.843 16.433C-164.765 -149.057 -118.103 -255.114 -197.947 -314.481C-256.29 -357.974 -306.339 -319.947 -413.302 -363.65C-487.771 -394.081 -538.45 -443.09 -569.963 -480.249" stroke="#008888" stroke-opacity="0.5" stroke-miterlimit="10"/>
</svg>
