<svg width="375" height="812" viewBox="0 0 375 812" fill="none" xmlns="http://www.w3.org/2000/svg">
<path d="M558.105 1705.67C531.63 1634.84 491.508 1567.92 439.669 1508.13C316.253 1367.01 196.107 1351.77 191.572 1287.48C184.576 1188.13 469.636 1196.88 557.186 1013.76C621.42 879.456 547.833 707.814 530.776 668.08C464.345 513.092 361.381 468.839 380.123 374.422C393.75 305.334 454.698 299.259 503.231 198.073C537.015 127.629 541.519 59.6604 539.945 12.6901" stroke="#008888" stroke-opacity="0.5" stroke-miterlimit="10"/>
<path d="M545.338 1702.4C518.85 1631.55 478.723 1564.62 426.883 1504.82C303.44 1363.69 183.321 1348.46 178.778 1284.19C171.789 1184.82 456.849 1193.57 544.392 1010.48C608.607 876.138 535.02 704.496 517.989 664.77C451.559 509.782 348.587 465.553 367.337 371.112C380.964 302.024 441.904 295.972 490.445 194.762C524.237 124.296 528.732 56.3504 527.159 9.3801" stroke="#008888" stroke-opacity="0.5" stroke-miterlimit="10"/>
<path d="M532.57 1699.12C506.093 1628.27 465.965 1561.34 414.116 1501.55C290.673 1360.41 170.553 1345.18 166.019 1280.89C158.999 1181.61 444.09 1190.27 531.632 1007.17C595.839 872.859 522.253 701.217 505.222 661.491C438.765 506.495 335.827 462.251 354.569 367.834C368.197 298.746 429.172 292.679 477.704 191.493C511.496 121.026 515.992 53.081 514.418 6.11065" stroke="#008888" stroke-opacity="0.5" stroke-miterlimit="10"/>
<path d="M519.818 1695.79C493.318 1624.95 453.179 1558.03 401.329 1498.24C277.886 1357.1 157.766 1341.87 153.224 1277.6C146.235 1178.23 431.295 1186.99 518.837 1003.89C583.052 869.55 509.466 697.908 492.435 658.182C425.978 503.186 323.033 458.966 341.782 364.524C355.41 295.436 416.377 289.394 464.917 188.184C498.709 117.717 503.205 49.7719 501.631 2.80153" stroke="#008888" stroke-opacity="0.5" stroke-miterlimit="10"/>
<path d="M507.043 1692.54C480.556 1621.69 440.429 1554.77 388.588 1494.97C265.153 1353.81 144.999 1338.59 140.491 1274.31C133.495 1174.97 418.562 1183.69 506.105 1000.6C570.32 866.258 496.725 694.64 479.702 654.89C413.238 499.918 310.3 455.674 329.042 361.256C342.669 292.168 403.644 286.102 452.177 184.916C485.969 114.449 490.438 46.4947 488.891 -0.466853" stroke="#008888" stroke-opacity="0.5" stroke-miterlimit="10"/>
<path d="M494.283 1689.24C467.787 1618.39 427.661 1551.47 375.829 1491.67C252.386 1350.53 132.24 1335.29 127.724 1271.03C120.712 1171.73 405.795 1180.42 493.453 997.329C557.66 863.015 484.073 691.373 467.043 651.647C400.586 496.651 297.64 452.43 316.39 357.989C330.017 288.901 390.984 282.858 439.525 181.648C473.317 111.182 477.786 43.2276 476.246 -3.75756" stroke="#008888" stroke-opacity="0.5" stroke-miterlimit="10"/>
<path d="M481.504 1685.91C455.002 1615.06 414.851 1548.14 362.981 1488.36C239.546 1347.21 119.392 1331.99 114.884 1267.71C107.86 1168.35 392.928 1177.08 480.47 993.983C544.712 859.654 471.118 688.036 454.095 648.286C387.63 493.314 284.692 449.07 303.434 354.652C317.062 285.564 378.037 279.498 426.569 178.312C460.334 107.836 464.83 39.8908 463.283 -7.07079" stroke="#008888" stroke-opacity="0.5" stroke-miterlimit="10"/>
<path d="M468.84 1682.69C442.363 1611.84 402.235 1544.91 350.385 1485.12C226.969 1343.99 106.823 1328.75 102.281 1264.48C95.2915 1165.11 380.352 1173.86 467.902 990.743C532.136 856.438 458.549 684.796 441.492 645.061C375.061 490.074 272.116 445.853 290.839 351.403C304.466 282.315 365.441 276.249 413.947 175.054C447.731 104.611 452.227 36.6657 450.661 -10.3282" stroke="#008888" stroke-opacity="0.5" stroke-miterlimit="10"/>
<path d="M455.967 1679.38C429.485 1608.52 389.36 1541.59 337.52 1481.78C214.104 1340.66 93.9502 1325.44 89.4157 1261.15C82.4035 1161.85 367.487 1170.53 455.109 987.458C519.351 853.13 445.757 681.511 428.707 641.753C362.269 486.789 259.305 442.536 278.047 348.119C291.674 279.03 352.622 272.956 401.155 171.769C434.947 101.303 439.443 33.3572 437.869 -13.6131" stroke="#008888" stroke-opacity="0.5" stroke-miterlimit="10"/>
<path d="M443.222 1676.03C416.695 1605.18 376.527 1538.25 324.645 1478.47C201.202 1337.34 81.0827 1322.1 76.5482 1257.81C69.5513 1158.47 354.611 1167.22 442.161 984.096C506.396 849.791 432.809 678.149 415.751 638.414C349.321 483.427 246.349 439.197 265.099 344.756C278.726 275.668 339.674 269.593 388.207 168.407C421.991 97.9635 426.487 30.0183 424.921 -16.9757" stroke="#008888" stroke-opacity="0.5" stroke-miterlimit="10"/>
<path d="M430.5 1672.79C404.004 1601.95 363.878 1535.02 312.045 1475.22C188.603 1334.08 68.4831 1318.85 63.9408 1254.58C56.944 1155.24 342.012 1163.97 429.554 980.869C493.769 846.532 420.175 674.913 403.152 635.164C336.714 480.2 233.75 435.947 252.499 341.506C266.119 272.441 327.067 266.367 375.607 165.157C409.399 94.6898 413.895 26.7446 412.321 -20.2257" stroke="#008888" stroke-opacity="0.5" stroke-miterlimit="10"/>
<path d="M417.68 1669.5C391.192 1598.65 351.065 1531.72 299.225 1471.93C175.782 1330.79 55.6627 1315.56 51.1282 1251.27C44.1314 1151.92 329.191 1160.67 416.741 977.553C480.949 843.239 407.362 671.597 390.331 631.871C323.874 476.875 220.929 432.655 239.679 338.213C253.306 269.125 314.281 263.059 362.814 161.873C396.598 91.4297 401.094 23.4844 399.528 -23.5095" stroke="#008888" stroke-opacity="0.5" stroke-miterlimit="10"/>
<path d="M404.936 1666.15C378.43 1595.31 338.305 1528.38 286.481 1468.58C163.038 1327.44 42.9186 1312.21 38.3763 1247.94C31.3909 1148.65 316.555 1157.36 403.974 974.275C468.189 839.937 394.595 668.319 377.572 628.569C311.107 473.597 208.17 429.353 226.919 334.911C240.539 265.847 301.514 259.781 350.054 158.571C383.846 88.1038 388.315 20.1499 386.768 -26.8117" stroke="#008888" stroke-opacity="0.5" stroke-miterlimit="10"/>
<path d="M392.153 1662.92C365.665 1592.07 325.538 1525.14 273.698 1465.35C150.255 1324.21 30.1088 1308.97 25.6011 1244.69C18.6043 1145.34 303.664 1154.1 391.214 970.974C455.422 836.66 381.835 665.018 364.797 625.315C298.34 470.319 195.394 426.099 214.144 331.658C227.771 262.569 288.746 256.503 337.279 155.317C371.063 84.8739 375.532 16.9198 373.993 -30.0654" stroke="#008888" stroke-opacity="0.5" stroke-miterlimit="10"/>
<path d="M379.393 1659.62C352.897 1588.77 312.771 1521.85 260.938 1462.05C137.495 1320.91 17.349 1305.67 12.8336 1241.41C5.82911 1142.09 290.905 1150.79 378.42 967.688C442.635 833.351 369.041 661.732 352.018 621.983C285.553 467.01 182.615 422.766 201.365 328.325C214.985 259.26 275.96 253.194 324.5 151.984C358.265 81.5089 362.761 13.5636 361.214 -33.398" stroke="#008888" stroke-opacity="0.5" stroke-miterlimit="10"/>
<path d="M366.623 1656.26C340.154 1585.41 300.025 1518.48 248.168 1458.69C124.752 1317.56 4.60556 1302.32 0.0978396 1238.04C-6.94888 1138.76 278.215 1147.46 365.661 964.386C429.895 830.081 356.309 658.439 339.278 618.713C272.821 463.717 169.876 419.496 188.625 325.055C202.253 255.967 263.228 249.901 311.76 148.714C345.518 78.2624 350.013 10.3172 348.474 -36.668" stroke="#008888" stroke-opacity="0.5" stroke-miterlimit="10"/>
<path d="M353.813 1653.02C327.336 1582.17 287.208 1515.24 235.359 1455.45C111.943 1314.33 -8.20376 1299.08 -12.746 1234.81C-19.7428 1135.47 265.325 1144.2 352.867 961.101C417.109 826.772 343.515 655.154 326.465 615.395C260.027 460.432 157.063 416.179 175.812 321.737C189.44 252.649 250.38 246.598 298.92 145.388C332.712 74.9214 337.208 6.97618 335.634 -39.9942" stroke="#008888" stroke-opacity="0.5" stroke-miterlimit="10"/>
<path d="M341.072 1649.75C314.595 1578.9 274.467 1511.97 222.617 1452.18C99.2015 1311.06 -20.9449 1295.81 -25.4795 1231.52C-32.484 1132.2 252.584 1140.93 340.08 957.791C404.314 823.486 330.727 651.844 313.67 612.109C247.24 457.122 144.268 412.893 163.017 318.452C176.645 249.364 237.593 243.289 286.125 142.103C319.91 71.6593 324.405 3.71394 322.839 -43.28" stroke="#008888" stroke-opacity="0.5" stroke-miterlimit="10"/>
<path d="M328.335 1646.38C301.848 1575.53 261.721 1508.61 209.881 1448.81C86.4381 1307.68 -33.6816 1292.44 -38.2238 1228.17C-45.2974 1128.88 239.874 1137.57 327.366 954.53C391.582 820.193 317.995 648.551 300.964 608.825C234.526 453.861 131.562 409.608 150.311 315.167C163.939 246.079 224.879 240.028 273.419 138.818C307.211 68.3509 311.707 0.405723 310.133 -46.5646" stroke="#008888" stroke-opacity="0.5" stroke-miterlimit="10"/>
<path d="M315.467 1643.15C288.989 1572.3 248.861 1505.37 197.012 1445.58C73.5692 1304.44 -46.5504 1289.21 -51.085 1224.92C-58.0818 1125.57 226.978 1134.32 314.528 951.203C378.816 816.915 305.229 645.273 288.199 605.547C221.742 450.551 118.796 406.331 137.546 311.889C151.173 242.801 212.148 236.735 260.681 135.549C294.465 65.1057 298.961 -2.83961 297.395 -49.8335" stroke="#008888" stroke-opacity="0.5" stroke-miterlimit="10"/>
<path d="M302.785 1639.87C276.298 1569.03 236.171 1502.1 184.33 1442.3C60.8876 1301.17 -59.232 1285.93 -63.7743 1221.67C-70.7711 1122.32 214.297 1131.05 301.732 947.917C365.947 813.58 292.36 641.938 275.329 602.212C208.865 447.239 105.927 402.995 124.677 308.554C138.304 239.466 199.271 233.423 247.812 132.214C281.604 61.7467 286.099 -6.19862 284.526 -53.169" stroke="#008888" stroke-opacity="0.5" stroke-miterlimit="10"/>
<path d="M290.049 1636.5C263.561 1565.65 223.434 1498.73 171.594 1438.93C48.1513 1297.8 -71.9952 1282.55 -76.5029 1218.27C-83.6378 1118.99 201.534 1127.67 289.08 944.651C353.287 810.337 279.7 638.695 262.67 598.969C196.213 443.973 93.2673 399.752 112.017 305.311C125.644 236.223 186.619 230.157 235.152 128.971C268.936 58.5272 273.413 -9.45027 271.866 -56.4119" stroke="#008888" stroke-opacity="0.5" stroke-miterlimit="10"/>
<path d="M277.127 1633.25C250.631 1562.41 210.505 1495.48 158.672 1435.68C35.2296 1294.55 -84.9168 1279.3 -89.4323 1215.04C-96.4291 1115.7 188.639 1124.43 276.181 941.329C340.53 807.036 266.943 635.394 249.913 595.668C183.456 440.672 80.5106 396.451 99.2602 302.01C112.888 232.922 173.855 226.879 222.395 125.669C256.187 55.2026 260.656 -12.7515 259.109 -59.713" stroke="#008888" stroke-opacity="0.5" stroke-miterlimit="10"/>
<path d="M264.464 1630.01C237.994 1559.16 197.876 1492.24 146.037 1432.45C22.5938 1291.31 -97.5527 1276.07 -102.06 1211.79C-109.084 1112.43 175.976 1121.19 263.553 938.072C327.76 803.758 254.173 632.116 237.143 592.39C170.686 437.394 67.7483 393.15 86.4902 298.733C100.118 229.644 161.092 223.578 209.625 122.392C243.383 51.94 247.886 -16.0288 246.339 -62.9903" stroke="#008888" stroke-opacity="0.5" stroke-miterlimit="10"/>
<path d="M251.74 1626.61C225.263 1555.76 185.135 1488.84 133.286 1429.04C9.86973 1287.92 -110.277 1272.68 -114.819 1208.41C-121.973 1109.09 163.198 1117.77 250.764 934.788C315.005 800.459 241.419 628.817 224.361 589.082C157.931 434.095 54.9857 389.874 73.7085 295.424C87.3359 226.336 148.303 220.294 196.817 119.075C230.609 48.6082 235.104 -19.337 233.531 -66.3073" stroke="#008888" stroke-opacity="0.5" stroke-miterlimit="10"/>
<path d="M238.942 1623.43C212.465 1552.58 172.337 1485.65 120.488 1425.86C-2.92836 1284.73 -123.075 1269.49 -127.609 1205.2C-134.606 1105.86 150.462 1114.58 238.004 931.486C302.238 797.181 228.732 625.565 211.602 585.781C145.164 430.817 42.1992 386.564 60.9411 292.146C74.5685 223.058 135.517 216.983 184.049 115.797C217.841 45.3303 222.337 -22.615 220.763 -69.5854" stroke="#008888" stroke-opacity="0.5" stroke-miterlimit="10"/>
<path d="M226.182 1620.13C199.695 1549.28 159.568 1482.36 107.728 1422.56C-15.7149 1281.42 -135.835 1266.19 -140.377 1201.92C-147.366 1102.56 137.694 1111.31 225.236 928.209C289.478 793.88 215.891 622.238 198.834 582.503C132.404 427.516 29.4319 383.287 48.1815 288.845C61.8089 219.757 122.749 213.706 171.29 112.496C205.082 42.0291 209.577 -25.9161 208.004 -72.8864" stroke="#008888" stroke-opacity="0.5" stroke-miterlimit="10"/>
</svg>
