<svg width="375" height="656" viewBox="0 0 375 656" fill="none" xmlns="http://www.w3.org/2000/svg">
<path d="M-489.267 -732.744C-249.684 -619.694 -31.7209 -77.5243 -109.102 65.5895C-159.836 159.406 -405.972 83.9836 -478.751 82.0381C-577.989 79.3516 -376.602 38.969 -309.605 -56.8816C-229.999 -170.784 -195.433 -522.022 -9.87469 -403.447C152.057 -299.937 141.409 -123.344 269.464 -89.5398C385.296 -59.0161 515.839 -171.185 607.542 -270.042" stroke="#008888" stroke-opacity="0.63" stroke-width="2" stroke-miterlimit="10"/>
<path d="M-492.287 -722.62C-264.554 -608.251 -55.7029 -83.8518 -125.836 54.4596C-171.799 145.069 -404.593 72.5709 -471.792 70.2935C-564.941 67.1016 -372.042 28.0984 -306.624 -63.5221C-228.215 -173.387 -192.075 -508.613 -12.9189 -394.209C146.944 -292.286 132.083 -112.759 260.073 -74.5441C375.136 -40.6577 508.317 -148.779 601.815 -244.411" stroke="#008888" stroke-opacity="0.63" stroke-width="2" stroke-miterlimit="10"/>
<path d="M-495.295 -712.55C-279.412 -596.863 -79.6625 -90.2684 -142.539 43.2809C-183.732 130.683 -403.202 61.1042 -464.821 58.4948C-551.878 54.7222 -367.469 17.1739 -303.625 -70.2342C-226.413 -176.062 -188.692 -495.235 -15.9509 -385.024C141.837 -284.672 122.635 -101.772 250.71 -59.5973C364.864 -21.9321 500.803 -126.409 596.117 -218.829" stroke="#008888" stroke-opacity="0.63" stroke-width="2" stroke-miterlimit="10"/>
<path d="M-498.304 -702.403C-294.276 -585.38 -103.607 -96.6607 -159.261 32.1739C-195.667 116.316 -401.829 49.7091 -457.869 46.7679C-538.831 42.2811 -362.876 6.25606 -300.628 -76.9273C-224.485 -178.698 -185.306 -481.855 -18.9573 -375.851C136.734 -277.056 113.206 -90.9699 241.321 -44.677C354.684 -3.63661 493.269 -104.025 590.41 -193.268" stroke="#008888" stroke-opacity="0.63" stroke-width="2" stroke-miterlimit="10"/>
<path d="M-501.318 -692.296C-309.035 -573.924 -127.542 -103.146 -175.971 21.0315C-207.586 101.896 -400.421 38.2663 -450.856 34.9054C-525.759 29.8852 -358.27 -4.63935 -297.631 -83.6206C-222.614 -181.333 -181.925 -468.458 -21.9854 -366.665C131.631 -269.44 103.853 -80.3555 231.98 -29.7238C344.502 14.7339 485.793 -81.6434 584.716 -167.684" stroke="#008888" stroke-opacity="0.63" stroke-width="2" stroke-miterlimit="10"/>
<path d="M-504.334 -682.19C-323.87 -562.471 -151.467 -109.667 -192.699 9.88395C-219.507 87.4181 -399.015 26.8237 -443.887 23.1257C-512.637 17.4473 -353.624 -15.5417 -294.634 -90.3138C-220.722 -183.98 -178.549 -455.043 -25.0019 -357.457C126.5 -261.794 94.4556 -69.6585 222.599 -14.7633C334.319 33.1047 478.335 -59.2566 579.017 -142.083" stroke="#008888" stroke-opacity="0.63" stroke-width="2" stroke-miterlimit="10"/>
<path d="M-507.337 -672.061C-338.705 -551.018 -175.332 -116.456 -209.416 -1.24065C-231.396 72.8931 -397.668 15.3252 -436.913 11.3284C-499.529 4.92877 -348.984 -26.4265 -291.642 -96.9894C-218.812 -186.622 -175.176 -441.686 -28.0714 -348.263C121.361 -254.189 85.0158 -59.0121 213.199 0.192036C324.064 51.3967 470.715 -36.841 573.282 -116.492" stroke="#008888" stroke-opacity="0.63" stroke-width="2" stroke-miterlimit="10"/>
<path d="M-510.353 -661.955C-353.553 -539.588 -199.232 -123.256 -226.127 -12.3835C-243.269 58.3149 -396.141 3.86064 -429.927 -0.446616C-486.405 -7.64296 -344.291 -37.2962 -288.553 -103.675C-216.747 -189.334 -171.889 -427.974 -30.9725 -339.059C116.171 -246.217 75.7319 -48.3773 203.95 15.1534C314.064 69.726 463.326 -14.4338 567.697 -90.8955" stroke="#008888" stroke-opacity="0.63" stroke-width="2" stroke-miterlimit="10"/>
<path d="M-513.367 -651.847C-368.387 -528.135 -223.169 -130.181 -242.854 -23.5303C-255.243 43.631 -394.624 -7.62562 -422.953 -12.2433C-473.183 -20.4139 -339.596 -48.1648 -285.636 -110.353C-214.915 -191.903 -168.699 -414.576 -34.0758 -329.876C110.965 -238.574 66.3141 -37.8006 194.499 30.0936C303.803 87.9783 455.735 7.95238 561.911 -65.3196" stroke="#008888" stroke-opacity="0.63" stroke-width="2" stroke-miterlimit="10"/>
<path d="M-516.365 -641.736C-383.217 -516.7 -247.137 -137.268 -259.565 -34.6732C-267.254 28.8778 -393.076 -19.1605 -415.984 -24.0237C-459.892 -33.3563 -334.938 -59.045 -282.639 -117.047C-212.917 -194.519 -165.242 -401.176 -37.0273 -320.63C105.911 -230.868 57.0358 -27.1834 185.2 45.0972C293.717 106.282 448.301 30.3843 556.294 -39.6754" stroke="#008888" stroke-opacity="0.63" stroke-width="2" stroke-miterlimit="10"/>
<path d="M-519.38 -631.63C-398.052 -505.247 -271.213 -144.502 -276.276 -45.8156C-279.356 14.0411 -391.376 -30.6884 -409.103 -35.8296C-446.452 -46.6741 -330.249 -69.8968 -279.729 -123.766C-210.984 -197.174 -161.977 -387.775 -40.214 -311.491C100.599 -223.256 47.5099 -16.6965 175.665 59.9931C283.416 124.407 440.609 52.721 550.407 -14.1491" stroke="#008888" stroke-opacity="0.63" stroke-width="2" stroke-miterlimit="10"/>
<path d="M-522.401 -621.506C-412.883 -493.812 -295.417 -151.889 -292.992 -56.9403C-291.565 -0.884666 -390.902 -39.5044 -402.024 -47.5957C-434.453 -53.391 -325.369 -80.6913 -276.65 -130.416C-208.845 -199.748 -158.491 -374.347 -43.1608 -302.262C95.5721 -215.58 38.2695 -6.14376 166.371 74.9796C273.351 142.698 433.175 75.1533 544.794 11.4781" stroke="#008888" stroke-opacity="0.63" stroke-width="2" stroke-miterlimit="10"/>
<path d="M-525.399 -611.395C-427.735 -482.365 -319.845 -159.418 -309.721 -68.0885C-303.927 -15.8755 -389.523 -50.7267 -395.056 -59.3762C-421.41 -65.4331 -320.475 -91.4637 -273.654 -137.11C-206.742 -202.333 -155.128 -360.956 -46.1793 -293.112C90.4511 -207.97 28.9573 4.32952 157.022 89.8919C263.248 160.863 425.669 97.5063 539.11 37.0259" stroke="#008888" stroke-opacity="0.63" stroke-width="2" stroke-miterlimit="10"/>
<path d="M-528.414 -601.288C-442.564 -470.929 -344.541 -167.007 -326.431 -79.2301C-316.468 -30.8993 -388.16 -61.9527 -388.028 -71.1571C-408.321 -77.4984 -315.545 -102.224 -270.608 -143.769C-204.532 -204.886 -151.689 -347.56 -49.1527 -283.852C85.3805 -200.267 19.7008 14.8778 147.701 104.909C253.184 179.097 418.243 119.98 533.436 62.6734" stroke="#008888" stroke-opacity="0.63" stroke-width="2" stroke-miterlimit="10"/>
<path d="M-531.433 -591.183C-457.403 -459.478 -369.566 -174.599 -343.145 -90.3741C-329.205 -45.9251 -386.784 -73.1761 -381.116 -82.9542C-395.323 -89.5922 -310.683 -112.968 -267.652 -150.532C-202.331 -207.557 -148.343 -334.25 -52.2221 -274.736C80.2313 -192.704 10.3709 25.2694 138.284 119.782C243.035 197.21 410.651 142.288 527.701 88.187" stroke="#008888" stroke-opacity="0.63" stroke-width="2" stroke-miterlimit="10"/>
<path d="M-534.431 -581.071C-472.233 -448.042 -394.923 -182.022 -359.874 -101.521C-342.151 -60.8778 -385.423 -84.4025 -374.13 -94.7284C-382.276 -101.651 -305.718 -123.66 -264.676 -157.155C-200.103 -209.856 -144.968 -320.835 -55.2722 -265.479C75.1119 -185.035 1.0831 35.7893 128.903 134.801C232.956 215.421 403.119 164.73 521.985 113.841" stroke="#008888" stroke-opacity="0.63" stroke-width="2" stroke-miterlimit="10"/>
<path d="M-537.446 -570.965C-487.068 -436.589 -420.771 -189.208 -376.585 -112.664C-355.253 -75.687 -384.043 -95.6244 -367.156 -106.526C-369.222 -113.728 -300.715 -134.285 -261.679 -163.848C-197.772 -212.24 -141.577 -307.473 -58.2729 -256.324C70.0243 -177.472 -8.13966 46.1559 119.537 149.708C222.892 233.521 395.613 187.084 516.284 139.384" stroke="#008888" stroke-opacity="0.63" stroke-width="2" stroke-miterlimit="10"/>
<path d="M-540.466 -560.841C-501.916 -425.16 -446.847 -195.947 -393.3 -123.789C-368.448 -90.3135 -382.681 -106.852 -360.187 -118.306C-356.174 -125.787 -295.652 -144.854 -258.752 -170.563C-195.415 -214.521 -138.238 -294.127 -61.3874 -247.107C64.8457 -169.86 -17.4516 56.6296 110.093 164.688C212.754 251.675 388.029 209.509 510.504 164.999" stroke="#008888" stroke-opacity="0.63" stroke-width="2" stroke-miterlimit="10"/>
<path d="M-543.465 -550.729C-516.751 -413.706 -473.099 -202.221 -410.012 -134.931C-381.689 -104.723 -379.57 -114.637 -353.219 -130.086C-342.236 -136.531 -290.532 -155.425 -255.673 -177.212C-192.849 -216.605 -134.749 -280.774 -64.3341 -237.877C59.84 -162.253 -26.5977 67.0578 100.781 179.669C202.784 269.842 380.582 231.919 504.874 190.622" stroke="#008888" stroke-opacity="0.63" stroke-width="2" stroke-miterlimit="10"/>
<path d="M-546.495 -540.57C-531.596 -402.219 -499.365 -207.928 -426.667 -146C-394.79 -118.826 -379.148 -127.461 -346.154 -141.8C-329.6 -149 -285.358 -165.656 -252.603 -183.828C-190.186 -218.433 -131.279 -267.352 -67.2899 -228.613C54.8533 -154.642 -35.7229 77.548 91.4945 194.696C192.846 288.036 373.133 254.403 499.235 216.278" stroke="#008888" stroke-opacity="0.63" stroke-width="2" stroke-miterlimit="10"/>
<path d="M-549.495 -530.515C-546.416 -390.817 -525.46 -213.314 -443.45 -157.22C-407.933 -132.92 -378.311 -139.816 -339.258 -153.657C-316.889 -161.596 -280.3 -176.015 -249.684 -190.581C-187.601 -220.129 -127.866 -254.192 -70.3808 -219.54C49.8641 -147.411 -44.7926 87.656 82.0559 209.526C182.889 305.902 365.56 276.662 493.479 241.749" stroke="#008888" stroke-opacity="0.63" stroke-width="2" stroke-miterlimit="10"/>
<path d="M-552.493 -520.404C-561.246 -379.383 -551.327 -218.311 -460.161 -168.363C-342.44 -103.762 -185.477 -277.213 -73.4078 -210.297C44.7398 -139.726 -54.1236 98.2574 72.6812 224.526C172.744 324.207 358.04 299.126 487.769 267.385" stroke="#008888" stroke-opacity="0.63" stroke-width="2" stroke-miterlimit="10"/>
</svg>
    