<svg id="Group_16" data-name="Group 16" xmlns="http://www.w3.org/2000/svg" xmlns:xlink="http://www.w3.org/1999/xlink" width="297.5" height="207.605" viewBox="0 0 297.5 207.605">
  <defs>
    <clipPath id="clip-path">
      <rect id="Rectangle_64" data-name="Rectangle 64" width="297.5" height="207.605" fill="none"/>
    </clipPath>
  </defs>
  <g id="Group_15" data-name="Group 15" clip-path="url(#clip-path)">
    <path id="Path_26" data-name="Path 26" d="M818.719,90.636c10.215-.44,20.495.188,30.718-.087,1.337.027,1.467,2.1.434,2.7-.769.444-3.2.415-4.406.806-2.689.875-3.321,2.977-3.609,5.574l.006,69.5c-.721,12.088-8.137,18.879-18.993,22.7-1.866.658-6.862,2.426-8.566,1.609-2.108-1.011,2.494-3.237,3.2-3.75,8.844-6.445,8.129-15.418,8.7-25.051.176-2.952.656-5.965.765-8.915.053-1.444.335-5.8-.925-6.541-1.06-.622-5.765-.011-7.411-.035-18.4-.274-41.5-8.675-40.082-30.923,1.325-20.8,22.755-26.841,40.167-27.591m7.935,52.982-.085-44.6c-.8-1.332-4.671-1.674-6.175-1.767-17.124-1.062-29.187,8.434-26.908,26.411,2.13,16.8,16.809,21.494,31.872,20.27a2.316,2.316,0,0,0,1.3-.317" transform="translate(-585.132 -68.002)" fill="#27a481"/>
    <path id="Path_27" data-name="Path 27" d="M1066.47,125.8l21.06-.06c1.324-.126,1.494,2.171.715,2.724-.725.514-2.852.145-4.031.436a4.835,4.835,0,0,0-3.461,3.985c-.644,37.329-.313,74.793-.049,112.115.122,17.317-3.315,26.839-20.668,32.466a46.228,46.228,0,0,1-6.267,1.672,1.288,1.288,0,0,1-1-1.734c.2-.434,3.5-2.6,4.216-3.237,5.32-4.72,7.753-11.23,8.319-18.238.7-43.094-.161-86.292.439-129.368Z" transform="translate(-791.211 -94.509)" fill="#27a481"/>
    <path id="Path_28" data-name="Path 28" d="M143.079,51.035c1.952-.163,1.8,3.264,2.291,4.8.869,2.708,2.284,3.858,5.117,4.314,28.837.624,57.742.111,86.606.264,18.533,1.181,25.395,14.3,23.442,31.653-2.31,20.528-15.36,21.94-33.12,22.476-27.671.836-55.483-.659-83.168,0-3.256.418-3.621-4.9-.74-5.228l87.133.016c13.6-.516,24.118-3.692,24.944-19.235.711-13.38-7.275-18.9-19.732-19.753l-85.152.021c-5.062-.5-8.5-1.47-9.017-7.116a69.4,69.4,0,0,1-.015-10.872,1.436,1.436,0,0,1,1.412-1.334" transform="translate(-106.323 -38.355)" fill="#27a481"/>
    <path id="Path_29" data-name="Path 29" d="M698.364,1.962c-1.2,1.072-3.037.6-4.6,1.229A5.264,5.264,0,0,0,690.8,6.18c-1.364,3.345-.554,14.212-.612,18.5-.219,16.258-.32,32.623-.234,48.858.026,4.873,1.765,9.8-1.635,14.053L675.937,99.73,675.163,99l-.07-97.352c.466-2.677,4.313-1.318,6.271-1.178,5.679.407,11.363.729,17,1.493" transform="translate(-507.417 0)" fill="#27a481"/>
    <path id="Path_30" data-name="Path 30" d="M587.818,430.153c-13.492-13.345-27.112-26.576-40.477-40.063-2.576-1.654-4.109-3.208-7.01-1.1-.61.444-2.5,2.588-2.809,2.649-.631.123-2.154-1.229-1.7-2.19.108-.231,2.971-3.194,3.473-3.731,3.783-4.052,7.877-7.859,11.654-11.922.962-.684,1.769.146,2.5.751,4.233,3.494,9.256,9.707,13.266,13.787,9.854,10.027,19.747,19.945,29.535,30.032,5.621,5.793,15.976,14.205,18,21.961,2.479,9.5-2.773,17.194-8.045,24.464a1.546,1.546,0,0,1-1.9.12c-.213-.291.824-4.445.885-5.355.406-6.052-1.661-10.992-5.007-15.835-6.333-9.169-8.494-7.934-18.929-7.852-22.26.175-44.528-.145-66.79-.024a1.794,1.794,0,0,0-1.487,1.243c-.64,1.823-.724,4.589-1.427,6.763-3.033,9.37-13.85,16.833-23.452,18-.787.1-3.195.5-3-.746.194-1.222,4.841-3.947,6.044-5.143,5.153-5.119,6.151-11.263,6.589-18.231.566-9,.516-18.527.5-27.57-.02-9.322-1.121-20.642-.268-29.783.154-1.656.641-2.4,2.368-2.6l20.491.109c1.045.275,1.115,2.065.481,2.746-.532.571-2.781,0-3.826.146-5.01.689-4.219,6.666-4.623,10.268.849,12.065-1.094,25.61,0,37.5.034.36.233,1.6.633,1.6Z" transform="translate(-364.604 -280.764)" fill="#005a92"/>
    <path id="Path_31" data-name="Path 31" d="M439.556,351.86c-.158.1-2.933.191-3.7.4-3.325.893-4.251,3.593-4.7,6.716l.007,73.97c-.088,1.215-.145,2.666-1.611,2.856-2.736.355-7.018-.026-9.95-.024-.509,0-.973.248-1.455.237-1.8-.042-2.014-1.023-2.143-2.574l.116-82.8c.649-2.312,2.644-1.5,4.239-1.474,3.253.043,6.436.389,9.667.509,1.66.062,8.432-.318,9.318.113.683.332.567,1.856.212,2.076" transform="translate(-312.679 -262.321)" fill="#005a92"/>
    <path id="Path_32" data-name="Path 32" d="M85,465.061c-.349-.556.624-3.839.7-4.808.657-7.953-3.737-17.365-9.921-22.337-3.315-2.665-5.277-1.883-9.052-1.848-10,.091-21.5-.779-31.279-.006-16.606,1.312-26.243,21.624-17.206,35.565C24,480.5,34.065,481.917,43.88,482.233c8.381-.42,17.518.377,25.82-.262,2.3-.177,5.266-1.053,6.823-2.857,2.382-2.76,2-6.753,2.535-10.122a1.263,1.263,0,0,1,1.943-.3c.538.6.575,7.678.489,8.937-.8,11.691-6.815,10.285-16.016,10.541-10.74.3-22.3.708-33.01.021-15.589-1-31.227-8.913-32.39-26.185-1.311-19.469,15.159-30.557,32.886-31.666l35.379.008L28.509,390.631c-2.741-2.226-4.13-3.686-7.51-1.54-.623.4-2.736,2.452-2.971,2.513-.871.227-2.555-1.946-1.195-2.71l15.091-14.952c.767-.422,1.556.215,2.169.681,13.386,13.43,26.517,27.091,39.7,40.717,11.086,11.46,28.66,22.8,18.911,40.988a71.422,71.422,0,0,1-5.4,8.251c-.535.635-1.833,1.225-2.3.482" transform="translate(0 -280.961)" fill="#005a92"/>
    <path id="Path_33" data-name="Path 33" d="M181.006,694.983a7.687,7.687,0,1,1-7.687-7.687,7.687,7.687,0,0,1,7.687,7.687" transform="translate(-124.493 -516.589)" fill="#005a92"/>
    <path id="Path_34" data-name="Path 34" d="M529.655,790.1c-.254-.185-1.179-3.872-1.744-4.465l-1.865,4.211c-.836.912-1.643-1.726-1.864-2.342-.948-2.642-1.122-5.39-3.217-7.577,2.123-.233,2.874.3,3.663,2.167.256.6.918,3.406,1.056,3.538.39.373.43-.135.552-.32,1.4-2.119.456-3.583-.8-5.386,3.431-.683,4.08,2.927,4.718,5.458,1.479-.689,1.547-4.6,2.291-5.4a.935.935,0,0,1,1.312.188c.582.963-.585,2.289-.883,3.1a48.244,48.244,0,0,1-2.1,5.839c-.142.263-.682,1.307-1.111.994" transform="translate(-391.57 -586.105)" fill="#005a92"/>
    <path id="Path_35" data-name="Path 35" d="M678.854,779.081a12.559,12.559,0,0,1,7.8.506c2.958,1.132,3.221,5.8,1.266,7.941-1.485,1.626-6.991,3.127-7.339.118-.352-3.037,1.063-6.333-1.731-8.565m3.757,8.4a2.906,2.906,0,0,0,1.091.3c3.916.026,3.91-6.442.873-7.11-.689-.152-1.949-.137-2.146.63.236,1.022-.124,5.7.182,6.183" transform="translate(-510.244 -585.262)" fill="#005a92"/>
    <path id="Path_36" data-name="Path 36" d="M916.693,781.071c-.11-.393-1.479-1.075-1.484-1.241,1.533-1.48,7.8-.3,8.184,1.747.38,2.027-1.773,2.761-1.49,4.446a13.921,13.921,0,0,0,1.827,2.284c.374.417,1.725.919.045,1.1-2.446.257-3.446-2.479-5.093-3.74-.159,1.029.61,4.152-1.107,3.982-.269-.027-.881-.478-.881-.632Zm4.184,2.076c.364-.568-.047-2.224-1.08-2.225-1.473,0-1.24,1.741-.858,2.747a5.9,5.9,0,0,0,1.938-.522" transform="translate(-687.894 -585.641)" fill="#005a92"/>
    <path id="Path_37" data-name="Path 37" d="M380.542,785.543v3.847c0,.508-1.737.508-1.737,0v-6.453c0-.088-.364-1.355-.444-1.542-.313-.736-1.164-1.26-1.294-2.057h4.1a6.683,6.683,0,0,1,3.111,1.356c2.715,2.688-.923,3.661-.761,5.212.09.857,3.11,2.863,2.984,3.48-3.017,1.643-4.233-2.275-5.956-3.843m0-1.242a6.143,6.143,0,0,0,2.11-.988c.519-.857.112-2.44-1.181-2.2-1.479.277-.8,2.061-.929,3.186" transform="translate(-283.413 -585.77)" fill="#005a92"/>
    <path id="Path_38" data-name="Path 38" d="M452.455,779.263c5.065-.862,7.453,3.77,5.571,8.053-.895,2.036-3.07,2.531-5.136,2.311-5.1-.543-4.977-9.592-.435-10.364m1.22,1.269c-3.364.113-3.515,7.767-.291,7.814,3.894.055,3.859-7.933.291-7.814" transform="translate(-337.52 -585.635)" fill="#005a92"/>
    <path id="Path_39" data-name="Path 39" d="M770.941,781.295c-.01-.059-.509-1-.558-1.055-.167-.17-1.414-.326-.932-.8a8.635,8.635,0,0,1,1.367-.253c3.192.081,1.6,3.6,2.34,4.113.524.2,3.127.239,3.252-.305.2-.875-.316-2.936.21-3.661a1.628,1.628,0,0,1,1.546,0c.675.925-.146,6.62.328,8.317.232.831,1.451.83,2.125,1.093a4.431,4.431,0,0,1-3.478.5c-1.1-.551-.407-3.649-1.048-4.288-.588-.586-3.168-.295-3.168.314v3.723c0,.757-1.986.757-1.986,0,0-2.09.325-5.849,0-7.694" transform="translate(-578.257 -585.617)" fill="#005a92"/>
    <path id="Path_40" data-name="Path 40" d="M1067.257,782.243c-1.113-.1-1.3-1.637-2.3-2.044-4.13-1.694-6.033,6.27-1.811,7.516,3.8,1.121,1.4-2.169,3.1-3.624.941-.807,1.654-.381,2.746-.357.11.749-.638.453-.885,1.224a13.492,13.492,0,0,0-.123,2.358c-.374,2.665-4.889,2.326-6.765,1.335-3.138-1.657-3.41-7.512-.257-9.349,2.506-1.46,7.329-.811,6.291,2.941" transform="translate(-795.769 -585.2)" fill="#005a92"/>
    <path id="Path_41" data-name="Path 41" d="M995.484,789.474c-2.569,1.286-4.3-2.488-6.329-2.493-1.778,0-2.262,2.84-4.094,2.991-.4-.4,3.729-10.254,4.209-10.56a.641.641,0,0,1,.758,0c.772.414,2.779,6.624,3.67,8,.512.792,1.273,1.284,1.786,2.058m-5.213-3.722-.866-2.231c-.493.659-1.172,1.352-1.117,2.231Z" transform="translate(-740.375 -585.733)" fill="#005a92"/>
    <path id="Path_42" data-name="Path 42" d="M613.913,779.683c.387,0,.877.491,1.084.816.786,1.238,1.51,4.271,2.3,5.888a9.843,9.843,0,0,0,1.946,3.013c-2.281,2.479-4.734-3.718-7.181-1.723-.455.371-1.534,3.041-2.13,2.1-.786-1.234,1.867-6.041,2.487-7.457.328-.749.426-2.642,1.493-2.641m-.618,4.383c-.505.965-.886,2.493.832,1.955.957-.3-.338-2.335-.832-1.955" transform="translate(-458.332 -586.029)" fill="#005a92"/>
    <path id="Path_43" data-name="Path 43" d="M855.954,788.594c-2.957,1.533-3.581-2.39-5.836-2.5-2.224-.106-2.487,3.027-3.671,2.722a.9.9,0,0,1-.566-1.215c1.356-3.142,3.02-6.213,4.119-9.43.372-.349,1.127,1.061,1.28,1.324,1.682,2.877,2.06,6.624,4.674,9.1m-5.712-5.952c-.678-.488-1.245,1.769-.988,2.233,1.14.106,1.739-.036,1.429-1.3a9.326,9.326,0,0,0-.44-.932" transform="translate(-635.72 -584.853)" fill="#005a92"/>
  </g>
</svg>
