<svg xmlns="http://www.w3.org/2000/svg" xmlns:xlink="http://www.w3.org/1999/xlink" width="355.667" height="248.195" viewBox="0 0 355.667 248.195">
  <defs>
    <clipPath id="clip-path">
      <rect id="Rectangle_65" data-name="Rectangle 65" width="355.667" height="248.195" fill="none"/>
    </clipPath>
  </defs>
  <g id="Group_18" data-name="Group 18" transform="translate(0 8.932)">
    <g id="Group_17" data-name="Group 17" transform="translate(0 -8.932)" clip-path="url(#clip-path)">
      <path id="Path_45" data-name="Path 45" d="M826.584,90.667c12.212-.526,24.5.225,36.724-.1,1.6.032,1.754,2.509.519,3.224-.92.531-3.831.5-5.267.964-3.215,1.046-3.97,3.559-4.315,6.664l.008,83.091c-.862,14.451-9.728,22.571-22.706,27.143-2.231.787-8.2,2.9-10.241,1.923-2.521-1.209,2.982-3.87,3.823-4.483,10.573-7.706,9.718-18.432,10.406-29.949.211-3.529.784-7.131.915-10.658.064-1.726.4-6.936-1.106-7.82-1.267-.744-6.892-.013-8.86-.042-22-.328-49.614-10.372-47.919-36.969,1.584-24.864,27.2-32.089,48.02-32.985m9.486,63.341-.1-53.317c-.953-1.592-5.584-2-7.383-2.112-20.472-1.269-34.893,10.083-32.169,31.575,2.546,20.087,20.1,25.7,38.1,24.233a2.769,2.769,0,0,0,1.549-.379" transform="translate(-547.327 -63.609)" fill="#fff"/>
      <path id="Path_46" data-name="Path 46" d="M1069.169,125.816l25.178-.071c1.582-.15,1.786,2.6.855,3.256-.867.615-3.409.173-4.819.522a5.781,5.781,0,0,0-4.138,4.764c-.77,44.627-.374,89.417-.059,134.036.146,20.7-3.963,32.087-24.71,38.814-1.211.393-6.66,2.082-7.492,2a1.54,1.54,0,0,1-1.2-2.073c.244-.518,4.179-3.106,5.04-3.87,6.361-5.642,9.269-13.425,9.945-21.8.839-51.519-.192-103.164.525-154.662Z" transform="translate(-740.092 -88.402)" fill="#fff"/>
      <path id="Path_47" data-name="Path 47" d="M143.4,51.036c2.334-.2,2.151,3.9,2.738,5.733,1.039,3.237,2.731,4.613,6.118,5.158,34.475.746,69.032.133,103.539.315,22.156,1.412,30.36,17.1,28.025,37.842-2.762,24.542-18.363,26.23-39.6,26.871-33.082,1-66.331-.788-99.429,0-3.893.5-4.329-5.854-.885-6.25l104.169.019c16.263-.617,28.833-4.414,29.821-23,.85-16-8.7-22.6-23.59-23.614l-101.8.025c-6.052-.593-10.167-1.758-10.78-8.507a82.968,82.968,0,0,1-.018-13,1.717,1.717,0,0,1,1.688-1.595" transform="translate(-99.453 -35.877)" fill="#fff"/>
      <path id="Path_48" data-name="Path 48" d="M702.914,2.345c-1.436,1.282-3.631.719-5.5,1.469a6.294,6.294,0,0,0-3.547,3.575c-1.63,4-.662,16.991-.732,22.116-.262,19.436-.383,39-.28,58.411.031,5.826,2.11,11.712-1.954,16.8l-14.8,14.513-.925-.874L675.093,1.968c.557-3.2,5.156-1.576,7.5-1.408,6.789.487,13.585.871,20.324,1.785" transform="translate(-474.633 0)" fill="#fff"/>
      <path id="Path_49" data-name="Path 49" d="M607.9,441.221c-16.13-15.954-32.413-31.773-48.391-47.9-3.08-1.977-4.912-3.835-8.381-1.309-.729.531-2.984,3.094-3.358,3.167-.755.148-2.575-1.469-2.036-2.619.129-.276,3.552-3.819,4.152-4.461,4.523-4.844,9.417-9.4,13.933-14.253,1.15-.818,2.115.175,2.991.9,5.06,4.178,11.066,11.6,15.86,16.483,11.78,11.987,23.607,23.844,35.31,35.9,6.721,6.925,19.1,16.982,21.518,26.255,2.963,11.36-3.315,20.556-9.617,29.248-.422.541-1.9.653-2.272.144-.255-.348.985-5.314,1.058-6.4.485-7.235-1.986-13.141-5.985-18.931-7.572-10.962-10.154-9.486-22.63-9.388-26.612.209-53.235-.173-79.848-.029a2.145,2.145,0,0,0-1.777,1.487c-.765,2.18-.865,5.486-1.706,8.086-3.627,11.2-16.558,20.124-28.037,21.516-.94.114-3.82.6-3.583-.892.232-1.461,5.787-4.719,7.225-6.148,6.161-6.12,7.354-13.465,7.877-21.8.676-10.764.617-22.15.594-32.961-.024-11.144-1.341-24.678-.321-35.606.185-1.979.766-2.871,2.831-3.1l24.5.13c1.249.329,1.333,2.469.576,3.283-.636.683-3.325,0-4.574.174-5.99.824-5.044,7.969-5.527,12.275,1.015,14.424-1.307,30.617,0,44.832.04.431.279,1.915.756,1.915Z" transform="translate(-341.047 -262.624)" fill="#fff"/>
      <path id="Path_50" data-name="Path 50" d="M444.161,352.418c-.189.117-3.506.228-4.421.474-3.975,1.067-5.082,4.3-5.62,8.029l.008,88.432c-.105,1.452-.173,3.187-1.927,3.414-3.271.425-8.391-.031-11.9-.029-.609,0-1.163.3-1.739.283-2.153-.05-2.407-1.223-2.562-3.077l.138-98.989c.776-2.764,3.161-1.788,5.068-1.762,3.889.051,7.694.465,11.557.608,1.984.074,10.081-.381,11.14.135.816.4.678,2.219.254,2.482" transform="translate(-292.477 -245.373)" fill="#fff"/>
      <path id="Path_51" data-name="Path 51" d="M101.623,482.9c-.417-.664.746-4.589.842-5.748.785-9.508-4.468-20.76-11.861-26.7-3.964-3.186-6.308-2.251-10.822-2.21-11.961.109-25.706-.931-37.395-.007-19.852,1.569-31.373,25.852-20.571,42.518,6.876,10.607,18.908,12.3,30.642,12.68,10.02-.5,20.944.451,30.868-.313,2.755-.212,6.3-1.258,8.157-3.415,2.848-3.3,2.389-8.073,3.031-12.1a1.51,1.51,0,0,1,2.323-.359c.643.717.688,9.179.584,10.684-.962,13.977-8.148,12.3-19.148,12.6-12.84.356-26.66.846-39.464.025C20.173,509.359,1.478,499.9.087,479.25-1.479,455.974,18.21,442.719,39.4,441.393l42.3.009L34.083,393.921c-3.276-2.661-4.937-4.407-8.978-1.841-.745.473-3.271,2.931-3.552,3-1.041.271-3.055-2.327-1.428-3.239L38.165,373.97c.917-.505,1.86.257,2.593.814,16,16.056,31.7,32.388,47.461,48.677,13.254,13.7,34.264,27.256,22.609,49a85.377,85.377,0,0,1-6.456,9.864c-.639.759-2.191,1.465-2.749.577" transform="translate(0 -262.808)" fill="#fff"/>
      <path id="Path_52" data-name="Path 52" d="M184.012,696.486a9.19,9.19,0,1,1-9.19-9.19,9.19,9.19,0,0,1,9.19,9.19" transform="translate(-116.45 -483.213)" fill="#fff"/>
      <path id="Path_53" data-name="Path 53" d="M531.354,792.113c-.3-.221-1.409-4.629-2.085-5.338l-2.23,5.034c-1,1.091-1.964-2.064-2.228-2.8-1.133-3.159-1.342-6.444-3.846-9.058,2.538-.279,3.436.363,4.379,2.591.306.722,1.1,4.072,1.263,4.23.466.445.514-.161.66-.382,1.674-2.533.545-4.284-.961-6.438,4.1-.816,4.877,3.5,5.641,6.525,1.768-.824,1.85-5.5,2.738-6.46a1.117,1.117,0,0,1,1.568.225c.7,1.151-.7,2.737-1.055,3.7-.792,2.154-1.449,5-2.515,6.98-.169.314-.816,1.562-1.329,1.188" transform="translate(-366.271 -548.238)" fill="#fff"/>
      <path id="Path_54" data-name="Path 54" d="M678.854,779.163c2.778-.952,6.617-.433,9.331.606,3.536,1.354,3.851,6.933,1.513,9.494-1.775,1.944-8.358,3.738-8.774.141-.42-3.631,1.27-7.571-2.07-10.24m4.492,10.042a3.475,3.475,0,0,0,1.3.355c4.681.031,4.675-7.7,1.043-8.5-.824-.181-2.33-.164-2.565.753.282,1.221-.149,6.81.218,7.393" transform="translate(-477.277 -547.449)" fill="#fff"/>
      <path id="Path_55" data-name="Path 55" d="M916.984,781.443c-.131-.469-1.768-1.285-1.775-1.484,1.833-1.769,9.325-.362,9.784,2.088.455,2.423-2.12,3.3-1.782,5.315a16.653,16.653,0,0,0,2.184,2.731c.447.5,2.062,1.1.053,1.31-2.925.307-4.12-2.964-6.088-4.471-.19,1.23.73,4.964-1.323,4.761-.322-.032-1.054-.571-1.054-.755Zm5,2.482c.436-.679-.056-2.659-1.291-2.66-1.761,0-1.482,2.081-1.025,3.284a7.048,7.048,0,0,0,2.317-.624" transform="translate(-643.45 -547.803)" fill="#fff"/>
      <path id="Path_56" data-name="Path 56" d="M381.221,786.756v4.6c0,.607-2.077.607-2.077,0v-7.715c0-.105-.436-1.62-.531-1.844-.374-.88-1.391-1.507-1.547-2.459h4.9a7.989,7.989,0,0,1,3.72,1.622c3.246,3.214-1.1,4.377-.91,6.231.108,1.025,3.718,3.423,3.568,4.16-3.607,1.965-5.06-2.72-7.12-4.595m0-1.485a7.345,7.345,0,0,0,2.522-1.181c.62-1.024.133-2.917-1.412-2.628-1.768.332-.953,2.464-1.111,3.809" transform="translate(-265.102 -547.924)" fill="#fff"/>
      <path id="Path_57" data-name="Path 57" d="M453.12,779.283c6.055-1.03,8.911,4.508,6.66,9.628-1.07,2.434-3.67,3.026-6.14,2.763-6.1-.649-5.95-11.467-.52-12.391m1.459,1.518c-4.022.135-4.2,9.286-.348,9.341,4.655.066,4.613-9.484.348-9.341" transform="translate(-315.713 -547.798)" fill="#fff"/>
      <path id="Path_58" data-name="Path 58" d="M771.254,781.717c-.012-.07-.608-1.2-.667-1.261-.2-.2-1.69-.389-1.114-.961a10.318,10.318,0,0,1,1.635-.3c3.816.1,1.917,4.3,2.8,4.918.627.239,3.738.286,3.888-.365.241-1.045-.378-3.51.251-4.377a1.946,1.946,0,0,1,1.848,0c.807,1.105-.174,7.914.392,9.943.277.994,1.734.992,2.54,1.307a5.3,5.3,0,0,1-4.157.6c-1.317-.659-.486-4.362-1.253-5.126-.7-.7-3.787-.352-3.787.375v4.451c0,.905-2.374.9-2.374,0,0-2.5.388-6.993,0-9.2" transform="translate(-540.896 -547.781)" fill="#fff"/>
      <path id="Path_59" data-name="Path 59" d="M1068.923,782.959c-1.331-.124-1.557-1.956-2.744-2.444-4.937-2.025-7.213,7.5-2.165,8.985,4.544,1.34,1.674-2.593,3.705-4.333,1.125-.964,1.978-.456,3.283-.426.132.9-.763.542-1.058,1.463a16.128,16.128,0,0,0-.147,2.819c-.447,3.186-5.845,2.781-8.088,1.6-3.751-1.981-4.077-8.981-.307-11.177,3-1.746,8.761-.969,7.521,3.516" transform="translate(-744.355 -547.391)" fill="#fff"/>
      <path id="Path_60" data-name="Path 60" d="M997.527,791.466c-3.071,1.537-5.135-2.974-7.566-2.981-2.126-.005-2.7,3.4-4.895,3.575-.482-.481,4.459-12.259,5.032-12.625a.766.766,0,0,1,.907,0c.923.495,3.322,7.918,4.387,9.565.612.947,1.522,1.535,2.135,2.461m-6.232-4.449-1.036-2.668c-.59.788-1.4,1.616-1.336,2.668Z" transform="translate(-692.54 -547.889)" fill="#fff"/>
      <path id="Path_61" data-name="Path 61" d="M614.719,779.683c.462,0,1.049.586,1.3.976.939,1.481,1.8,5.106,2.751,7.04a11.771,11.771,0,0,0,2.327,3.6c-2.727,2.964-5.66-4.445-8.585-2.06-.543.443-1.834,3.635-2.547,2.515-.939-1.476,2.232-7.222,2.973-8.915.392-.9.509-3.159,1.786-3.158m-.739,5.239c-.6,1.154-1.06,2.981.994,2.337,1.144-.358-.4-2.791-.994-2.337" transform="translate(-428.72 -548.166)" fill="#fff"/>
      <path id="Path_62" data-name="Path 62" d="M857.94,790.642c-3.535,1.833-4.281-2.857-6.977-2.985-2.659-.126-2.974,3.619-4.388,3.254a1.078,1.078,0,0,1-.677-1.453c1.621-3.757,3.61-7.428,4.924-11.274.444-.418,1.347,1.269,1.531,1.583,2.011,3.44,2.462,7.919,5.588,10.876m-6.829-7.116c-.811-.583-1.488,2.115-1.182,2.669,1.363.127,2.079-.043,1.708-1.556a11.161,11.161,0,0,0-.526-1.114" transform="translate(-594.646 -547.066)" fill="#fff"/>
    </g>
  </g>
</svg>
