<svg xmlns="http://www.w3.org/2000/svg" xmlns:xlink="http://www.w3.org/1999/xlink" width="13.637" height="15.713" viewBox="0 0 13.637 15.713">
  <defs>
    <clipPath id="clip-path">
      <rect id="Rectangle_4" data-name="Rectangle 4" width="13.637" height="15.713" transform="translate(0 0)" fill="none"/>
    </clipPath>
  </defs>
  <g id="Group_1" data-name="Group 1" transform="translate(0 0)" clip-path="url(#clip-path)">
    <path id="Path_2" data-name="Path 2" d="M5.166,12.373a1.891,1.891,0,0,0-.246.922,1.917,1.917,0,1,0,3.834,0,1.891,1.891,0,0,0-.246-.922" fill="none" stroke="#fff" stroke-linecap="round" stroke-linejoin="round" stroke-width="1"/>
    <path id="Path_3" data-name="Path 3" d="M7.9,1.566A1.066,1.066,0,1,1,6.838.5,1.064,1.064,0,0,1,7.9,1.566Z" fill="none" stroke="#fff" stroke-linecap="round" stroke-linejoin="round" stroke-width="1"/>
    <path id="Path_4" data-name="Path 4" d="M13.137,11.342a1.113,1.113,0,0,0-1.113-1.113.777.777,0,0,1-.776-.776V7.061a4.429,4.429,0,1,0-8.857,0V9.453a1.113,1.113,0,0,1-1.113,1.114.777.777,0,0,0-.778.777v1.029H13.137Z" fill="none" stroke="#fff" stroke-linecap="round" stroke-linejoin="round" stroke-width="1"/>
  </g>
</svg>
